# xmcd
#
# Track frame offsets:
#	150
#	11049
#	20659
#	30937
#	40059
#	52483
#	63437
#	72736
#	85125
#	96596
#
# Disc length: 1466 seconds
#
# Revision: 0
# Processed by: cddbd v1.5.1PL0 Copyright (c) Steve Scherf et al.
# Submitted via: dBpowerAMP V4.0
#
DISCID=8c05b80a
DTITLE=George Jones - George Jones (Direct Source) [Disc 1] 
DYEAR=2005
DGENRE=Country
TTITLE0=Tender Years
TTITLE1=The Race Is On
TTITLE2=Don't Stop The Music
TTITLE3=Love Bug
TTITLE4=A Lifetime To Regret
TTITLE5=Four-O-Thirty Three
TTITLE6=Honky Tonkin'
TTITLE7=Hello Darlin'
TTITLE8=Ruby Don't Take Your Love To Town
TTITLE9=I Threw Away The Rose
EXTD=
EXTT0=
EXTT1=
EXTT2=
EXTT3=
EXTT4=
EXTT5=
EXTT6=
EXTT7=
EXTT8=
EXTT9=
PLAYORDER=
